<svg width="39" height="16" viewBox="0 0 39 16" fill="none" xmlns="http://www.w3.org/2000/svg">
<path d="M38.4 8.7972C38.7906 8.40667 38.7906 7.77351 38.4 7.38298L32.0361 1.01902C31.6456 0.628498 31.0124 0.628498 30.6219 1.01902C30.2313 1.40955 30.2313 2.04271 30.6219 2.43324L36.2787 8.09009L30.6219 13.7469C30.2313 14.1375 30.2313 14.7706 30.6219 15.1612C31.0124 15.5517 31.6456 15.5517 32.0361 15.1612L38.4 8.7972ZM-1.02753e-07 9.09009L37.6929 9.09009L37.6929 7.09009L1.02753e-07 7.09009L-1.02753e-07 9.09009Z" fill="url(#paint0_linear)"/>
<defs>
<linearGradient id="paint0_linear" x1="-2.37304e-07" y1="8.58591" x2="39.4541" y2="8.5859" gradientUnits="userSpaceOnUse">
<stop stop-color="#C4774D"/>
<stop offset="1" stop-color="#FBB68F"/>
</linearGradient>
</defs>
</svg>
