<svg width="20" height="21" viewBox="0 0 20 21" fill="none" xmlns="http://www.w3.org/2000/svg">
<path d="M10 0.998047C15.5142 0.998047 20 5.48383 20 10.998C20 16.5123 15.5142 20.998 10 20.998C4.48578 20.998 0 16.5123 0 10.998C0 5.48383 4.48578 0.998047 10 0.998047ZM5.625 11.8313H9.16672V15.373C9.16672 15.8331 9.53995 16.2063 10 16.2063C10.4601 16.2063 10.8333 15.8331 10.8333 15.373V11.8313H14.375C14.8351 11.8313 15.2083 11.4581 15.2083 10.998C15.2083 10.538 14.8351 10.1648 14.375 10.1648H10.8333V6.62305C10.8333 6.16299 10.4601 5.78976 10 5.78976C9.53995 5.78976 9.16672 6.16299 9.16672 6.62305V10.1648H5.625C5.16495 10.1648 4.79172 10.538 4.79172 10.998C4.79172 11.4581 5.16495 11.8313 5.625 11.8313Z" fill="url(#paint0_linear)"/>
<defs>
<linearGradient id="paint0_linear" x1="20" y1="10.9146" x2="-0.934496" y2="10.9146" gradientUnits="userSpaceOnUse">
<stop stop-color="#C4774D"/>
<stop offset="1" stop-color="#FBB68F"/>
</linearGradient>
</defs>
</svg>
