<svg width="59" height="59" viewBox="0 0 59 59" fill="none" xmlns="http://www.w3.org/2000/svg">
<path d="M14.8696 0C14.2332 0 13.7172 0.516135 13.7172 1.15246C13.7172 1.7889 14.2332 2.30492 14.8696 2.30492C21.3796 2.30492 26.6758 7.73856 26.6758 14.4178C26.6758 15.0542 27.1919 15.5702 27.8282 15.5702C28.4647 15.5702 28.9807 15.0541 28.9807 14.4178C28.9808 6.46776 22.6505 0 14.8696 0Z" fill="url(#paint0_linear)"/>
<path d="M14.8659 5.46756C14.2294 5.46756 13.7134 5.9837 13.7134 6.62002C13.7134 7.25646 14.2294 7.77248 14.8659 7.77248C18.4307 7.77248 21.3308 10.7535 21.3308 14.4176C21.3308 15.054 21.8469 15.57 22.4832 15.57C23.1197 15.57 23.6357 15.0539 23.6357 14.4176C23.6358 9.48256 19.7016 5.46756 14.8659 5.46756Z" fill="url(#paint1_linear)"/>
<path d="M14.8882 10.5042C14.2517 10.5042 13.7358 11.0201 13.7358 11.6566C13.7358 12.2931 14.2519 12.8091 14.8882 12.8091C15.721 12.8091 16.3984 13.5148 16.3984 14.3823C16.3984 15.0187 16.9144 15.5347 17.5508 15.5347C18.1873 15.5347 18.7033 15.0186 18.7033 14.3823C18.7034 12.2438 16.9918 10.5042 14.8882 10.5042Z" fill="url(#paint2_linear)"/>
<path d="M52.8337 9.13399H50.2791C49.6426 9.13399 49.1266 9.65001 49.1266 10.2865C49.1266 10.9229 49.6426 11.4389 50.2791 11.4389H52.8337C54.9625 11.4389 56.6945 13.1709 56.6945 15.2997V30.9438C56.6945 32.1696 56.1196 33.2628 55.2262 33.9706V30.9567C55.2262 28.6055 53.5485 26.586 51.2371 26.1549L50.4921 26.0161C50.6583 25.5067 50.7492 24.964 50.7492 24.3999V21.7516C50.7492 18.872 48.4065 16.5293 45.5269 16.5293C42.6473 16.5293 40.3047 18.872 40.3047 21.7516V24.3999C40.3047 24.964 40.3958 25.5067 40.5618 26.0161L39.8168 26.1549C37.5053 26.5859 35.8278 28.6054 35.8278 30.9567V34.2977C34.663 33.6323 33.8756 32.3786 33.8756 30.9438V15.2997C33.8756 13.1709 35.6076 11.4389 37.7364 11.4389H40.4831C41.1196 11.4389 41.6356 10.9229 41.6356 10.2865C41.6356 9.65001 41.1194 9.13399 40.4831 9.13399H37.7364C34.3366 9.13399 31.5707 11.9 31.5707 15.2997V30.9438C31.5707 34.3436 34.3366 37.1096 37.7364 37.1096H43.5357V40.4231C43.5357 40.8886 43.8157 41.3085 44.2454 41.4871C44.3885 41.5467 44.5388 41.5756 44.6879 41.5756C44.9866 41.5756 45.2803 41.4594 45.5005 41.2407L49.6577 37.1096H52.8337C56.2335 37.1096 58.9994 34.3436 58.9994 30.9438V15.2997C58.9994 11.9 56.2335 9.13399 52.8337 9.13399ZM42.6095 21.7516C42.6095 20.1429 43.9181 18.8342 45.5268 18.8342C47.1355 18.8342 48.4442 20.1429 48.4442 21.7516V24.3999C48.4442 26.0086 47.1355 27.3173 45.5268 27.3173C43.9181 27.3173 42.6095 26.0086 42.6095 24.3999V21.7516ZM52.9209 34.8022C52.8918 34.8029 52.8629 34.8044 52.8335 34.8044H49.1825C48.8781 34.8044 48.5861 34.9251 48.3701 35.1395L45.8406 37.6532V35.957C45.8406 35.3206 45.3245 34.8045 44.6881 34.8045H38.1328V30.9566C38.1328 29.715 39.0188 28.6484 40.2394 28.4207L41.8641 28.1177C42.8074 29.0473 44.101 29.6221 45.5269 29.6221C46.9527 29.6221 48.2466 29.0471 49.1899 28.1176L50.8147 28.4205C52.0354 28.6483 52.9213 29.7147 52.9213 30.9566L52.9209 34.8022Z" fill="url(#paint3_linear)"/>
<path d="M45.6388 9.47206C45.4245 9.25657 45.1271 9.13443 44.8241 9.13443C44.521 9.13443 44.2236 9.25657 44.0092 9.47206C43.7949 9.68536 43.6716 9.98278 43.6716 10.2869C43.6716 10.59 43.7948 10.8874 44.0092 11.1017C44.2236 11.3159 44.5209 11.4393 44.8241 11.4393C45.1271 11.4393 45.4245 11.316 45.6388 11.1017C45.8531 10.8862 45.9765 10.5901 45.9765 10.2869C45.9765 9.98267 45.8532 9.6864 45.6388 9.47206Z" fill="url(#paint4_linear)"/>
<path d="M21.4195 38.7691C21.2052 38.5547 20.909 38.4314 20.6047 38.4314C20.3016 38.4314 20.0042 38.5547 19.79 38.7691C19.5756 38.9834 19.4522 39.2807 19.4522 39.5839C19.4522 39.8881 19.5755 40.1844 19.79 40.3987C20.0053 40.6142 20.3016 40.7374 20.6047 40.7374C20.9077 40.7374 21.2052 40.6142 21.4195 40.3987C21.635 40.1844 21.7571 39.888 21.7571 39.5839C21.7571 39.2808 21.635 38.9835 21.4195 38.7691Z" fill="url(#paint5_linear)"/>
<path d="M46.6451 49.1902L37.8158 40.3608C36.6405 39.1854 34.7914 39.0135 33.4197 39.9516L27.7845 43.8048C27.3271 44.1174 26.7111 44.0602 26.3191 43.6683L24.4557 41.8047C24.0058 41.3549 23.2763 41.3548 22.8257 41.8047C22.3757 42.2547 22.3757 42.9843 22.8257 43.4347L24.6891 45.2983C25.8645 46.4735 27.7134 46.6458 29.0853 45.7074L34.7205 41.8544C35.1777 41.5417 35.7939 41.5989 36.1859 41.9908L45.0152 50.8202C45.4645 51.2694 45.4644 52.0006 45.0151 52.4502C39.3534 58.1119 30.141 58.1119 24.4793 52.4502L6.55091 34.5215C3.80811 31.7788 2.29784 28.1324 2.29784 24.2536C2.29784 20.3748 3.80822 16.7282 6.55103 13.9854C6.76871 13.7677 7.05806 13.648 7.36585 13.648C7.67376 13.648 7.96323 13.7678 8.18079 13.9855L17.01 22.8149C17.4017 23.2066 17.4591 23.8229 17.1466 24.2802L13.2936 29.9154C12.3553 31.2873 12.5274 33.1361 13.7027 34.3116L16.5038 37.1127C16.9539 37.5626 17.6835 37.5626 18.1338 37.1127C18.5838 36.6627 18.5838 35.9329 18.1338 35.4827L15.3327 32.6816C14.941 32.2899 14.8836 31.6736 15.1963 31.2164L19.0493 25.5812C19.9875 24.2092 19.8153 22.3603 18.64 21.185L9.81078 12.3556C8.46277 11.0076 6.26928 11.0076 4.92104 12.3556C-1.63937 18.9162 -1.63937 29.5909 4.92104 36.1514L22.8494 54.0797C26.1297 57.3599 30.4384 59.0001 34.7472 59.0001C39.056 59 43.3647 57.3598 46.645 54.0797C47.993 52.7317 47.993 50.5383 46.6451 49.1902Z" fill="url(#paint6_linear)"/>
<path d="M15.5253 28.3383L8.53905 21.3521C8.08883 20.9023 7.35928 20.9023 6.90906 21.3521C6.45907 21.8022 6.45907 22.532 6.90906 22.9821L13.8954 29.9683C14.1204 30.1933 14.4152 30.3059 14.7103 30.3059C15.0052 30.3059 15.3002 30.1933 15.5253 29.9683C15.9752 29.5182 15.9752 28.7884 15.5253 28.3383Z" fill="url(#paint7_linear)"/>
<path d="M42.2636 55.0765L34.9129 47.7258C34.4627 47.2759 33.7331 47.2759 33.2829 47.7258C32.8329 48.1759 32.8329 48.9057 33.2829 49.3558L40.6336 56.7064C40.8587 56.9314 41.1534 57.044 41.4485 57.044C41.7434 57.044 42.0384 56.9314 42.2636 56.7064C42.7136 56.2562 42.7136 55.5266 42.2636 55.0765Z" fill="url(#paint8_linear)"/>
<defs>
<linearGradient id="paint0_linear" x1="0.00073213" y1="29.2538" x2="61.7561" y2="29.2538" gradientUnits="userSpaceOnUse">
<stop stop-color="#C4774D"/>
<stop offset="1" stop-color="#FBB68F"/>
</linearGradient>
<linearGradient id="paint1_linear" x1="0.00073213" y1="29.2538" x2="61.7561" y2="29.2538" gradientUnits="userSpaceOnUse">
<stop stop-color="#C4774D"/>
<stop offset="1" stop-color="#FBB68F"/>
</linearGradient>
<linearGradient id="paint2_linear" x1="0.00073213" y1="29.2538" x2="61.7561" y2="29.2538" gradientUnits="userSpaceOnUse">
<stop stop-color="#C4774D"/>
<stop offset="1" stop-color="#FBB68F"/>
</linearGradient>
<linearGradient id="paint3_linear" x1="0.00073213" y1="29.2538" x2="61.7561" y2="29.2538" gradientUnits="userSpaceOnUse">
<stop stop-color="#C4774D"/>
<stop offset="1" stop-color="#FBB68F"/>
</linearGradient>
<linearGradient id="paint4_linear" x1="0.00073213" y1="29.2538" x2="61.7561" y2="29.2538" gradientUnits="userSpaceOnUse">
<stop stop-color="#C4774D"/>
<stop offset="1" stop-color="#FBB68F"/>
</linearGradient>
<linearGradient id="paint5_linear" x1="0.00073213" y1="29.2538" x2="61.7561" y2="29.2538" gradientUnits="userSpaceOnUse">
<stop stop-color="#C4774D"/>
<stop offset="1" stop-color="#FBB68F"/>
</linearGradient>
<linearGradient id="paint6_linear" x1="0.00073213" y1="29.2538" x2="61.7561" y2="29.2538" gradientUnits="userSpaceOnUse">
<stop stop-color="#C4774D"/>
<stop offset="1" stop-color="#FBB68F"/>
</linearGradient>
<linearGradient id="paint7_linear" x1="0.00073213" y1="29.2538" x2="61.7561" y2="29.2538" gradientUnits="userSpaceOnUse">
<stop stop-color="#C4774D"/>
<stop offset="1" stop-color="#FBB68F"/>
</linearGradient>
<linearGradient id="paint8_linear" x1="0.00073213" y1="29.2538" x2="61.7561" y2="29.2538" gradientUnits="userSpaceOnUse">
<stop stop-color="#C4774D"/>
<stop offset="1" stop-color="#FBB68F"/>
</linearGradient>
</defs>
</svg>
