<svg width="121" height="40" viewBox="0 0 121 40" fill="none" xmlns="http://www.w3.org/2000/svg">
<path d="M12.5297 22.8117C13.2453 23.3484 13.7819 23.3484 14.3186 22.8117C14.8553 22.275 17.1808 17.8028 16.4653 16.5506C15.7497 15.2983 14.6764 14.5828 13.0664 14.5828C11.4564 14.5828 10.9197 15.835 11.0986 16.5506C11.2775 17.2661 11.8141 22.275 12.5297 22.8117Z" fill="url(#paint0_linear)"/>
<path d="M19.3275 27.4628C20.0431 27.6417 22.7264 27.6417 23.442 27.4628C24.1575 27.2839 26.662 24.6006 26.8409 23.5273C27.0197 22.4539 27.0197 18.6972 26.4831 17.8028C25.9464 16.9083 20.7586 14.0461 18.6119 16.5506C16.4653 19.055 16.4653 22.8117 16.4653 24.2428C16.4653 25.6739 18.6119 27.2839 19.3275 27.4628Z" fill="url(#paint1_linear)"/>
<path d="M9.84636 14.7617C10.2041 15.835 9.48858 19.5917 8.95192 20.665C8.41525 21.7384 5.01635 24.2428 3.94301 24.2428C2.86968 24.2428 0.275781 22.275 0.00744545 20.665C-0.26089 19.055 6.80524 12.9728 8.05747 13.1517C9.3097 13.3306 9.48858 13.6883 9.84636 14.7617Z" fill="url(#paint2_linear)"/>
<path d="M14.8553 31.7562C14.8553 30.8617 15.7497 27.9995 15.7497 27.105C15.7497 26.2106 15.3919 25.3161 14.8553 24.7795C14.3186 24.2428 10.1576 22.6362 7.87858 23.3484C5.59956 24.0606 5.2972 24.5701 5.37413 26.0317C5.45106 27.4933 9.66747 32.1139 11.8141 33.0084C13.9608 33.9028 14.8553 32.6506 14.8553 31.7562Z" fill="url(#paint3_linear)"/>
<path d="M33.6386 26.7473C35.7853 26.7473 39.7209 22.4539 39.7209 20.665C39.7209 18.8761 38.6476 17.8028 37.932 16.9083C37.2164 16.0139 35.0698 14.9406 33.6386 14.7617C32.2075 14.5828 28.8086 16.9083 28.6297 17.9817C28.4509 19.055 27.9142 22.0961 28.4509 22.9906C28.9875 23.885 29.7031 24.6006 30.2398 25.1373C30.7764 25.6739 31.492 26.7473 33.6386 26.7473Z" fill="url(#paint4_linear)"/>
<path d="M27.5564 32.8295C28.4509 32.8295 32.0287 29.0728 32.0286 28.1784C32.0286 27.2839 31.3131 27.105 30.4186 26.7473C29.5242 26.3895 28.0931 25.495 26.8409 26.0317C25.5886 26.5684 24.5153 28.5362 24.6942 29.2517C24.8731 29.9673 26.662 32.8295 27.5564 32.8295Z" fill="url(#paint5_linear)"/>
<path d="M20.9375 39.6273C22.9053 39.0906 25.2309 36.4073 25.9464 34.4395C26.662 32.4717 23.442 30.3251 23.442 30.3251C23.442 30.3251 19.1486 27.9995 17.3597 28.715C15.5708 29.4306 15.0342 34.0817 15.3919 35.5128C15.7497 36.944 18.9697 40.164 20.9375 39.6273Z" fill="url(#paint6_linear)"/>
<path d="M22.9053 11.1839C23.4419 10.1105 24.1575 7.06943 23.7997 5.45942C23.4419 3.84941 21.2953 0.629404 19.8642 0.0927363C18.433 -0.443932 16.823 1.52385 16.823 1.52385C16.823 1.52385 12.1719 7.4272 11.993 8.67943C11.8141 9.93166 12.1719 12.0783 13.4241 12.7939C14.6764 13.5094 16.823 15.1195 18.7908 14.225C20.7586 13.3305 22.3686 12.2572 22.9053 11.1839Z" fill="url(#paint7_linear)"/>
<path d="M31.1342 12.2572C31.3131 10.1105 29.3453 8.50054 27.1986 8.50054C25.052 8.50054 24.6942 10.4683 24.6942 10.4683C24.6942 10.4683 24.6942 13.8672 25.052 14.9406C25.4097 16.0139 26.662 16.9083 27.7353 16.5506C28.8086 16.1928 30.9553 14.4039 31.1342 12.2572Z" fill="url(#paint8_linear)"/>
<path d="M60.2408 33.0799C58.2611 33.0799 56.341 32.8176 54.4805 32.2928C52.6439 31.7442 51.1651 31.0406 50.0441 30.1819L52.0119 25.817C53.0852 26.6042 54.3613 27.2362 55.8401 27.7133C57.3189 28.1903 58.7977 28.4288 60.2765 28.4288C61.9223 28.4288 63.1388 28.1903 63.9259 27.7133C64.713 27.2124 65.1066 26.5564 65.1066 25.7455C65.1066 25.1492 64.868 24.6602 64.391 24.2786C63.9378 23.8731 63.3415 23.5511 62.6021 23.3126C61.8865 23.0741 60.9086 22.8117 59.6683 22.5255C57.7602 22.0723 56.1979 21.6191 54.9814 21.1659C53.765 20.7127 52.7155 19.9852 51.833 18.9835C50.9743 17.9817 50.545 16.646 50.545 14.9763C50.545 13.5214 50.9385 12.2095 51.7256 11.0408C52.5127 9.84818 53.6934 8.90602 55.2676 8.21432C56.8657 7.52261 58.8097 7.17676 61.0994 7.17676C62.6975 7.17676 64.2598 7.36758 65.7863 7.74921C67.3129 8.13084 68.6486 8.67943 69.7935 9.39499L68.0046 13.7957C65.6909 12.4838 63.3773 11.8279 61.0637 11.8279C59.4417 11.8279 58.2372 12.0903 57.4501 12.615C56.6868 13.1397 56.3052 13.8314 56.3052 14.6901C56.3052 15.5488 56.7465 16.1928 57.629 16.6221C58.5354 17.0276 59.9068 17.4331 61.7434 17.8386C63.6516 18.2918 65.2139 18.7449 66.4303 19.1981C67.6468 19.6513 68.6843 20.3669 69.543 21.3448C70.4255 22.3227 70.8668 23.6465 70.8668 25.3161C70.8668 26.7473 70.4613 28.0591 69.6504 29.2517C68.8632 30.4205 67.6706 31.3507 66.0726 32.0424C64.4745 32.7341 62.5306 33.0799 60.2408 33.0799Z" fill="url(#paint9_linear)"/>
<path d="M87.4568 33.0799C84.9047 33.0799 82.591 32.5314 80.5159 31.4342C78.4647 30.3131 76.8427 28.7747 75.6501 26.8188C74.4814 24.8391 73.897 22.609 73.897 20.1284C73.897 17.6478 74.4814 15.4295 75.6501 13.4737C76.8427 11.494 78.4647 9.95551 80.5159 8.85832C82.591 7.73728 84.9166 7.17676 87.4926 7.17676C89.6631 7.17676 91.619 7.55839 93.3602 8.32165C95.1252 9.08492 96.604 10.1821 97.7966 11.6132L94.0758 15.0479C92.3823 13.092 90.2833 12.1141 87.7788 12.1141C86.2285 12.1141 84.8451 12.46 83.6286 13.1517C82.4122 13.8195 81.4581 14.7617 80.7664 15.9781C80.0985 17.1946 79.7646 18.578 79.7646 20.1284C79.7646 21.6787 80.0985 23.0621 80.7664 24.2786C81.4581 25.495 82.4122 26.4491 83.6286 27.1408C84.8451 27.8087 86.2285 28.1426 87.7788 28.1426C90.2833 28.1426 92.3823 27.1527 94.0758 25.173L97.7966 28.6077C96.604 30.0627 95.1252 31.1718 93.3602 31.9351C91.5951 32.6983 89.6274 33.0799 87.4568 33.0799Z" fill="url(#paint10_linear)"/>
<path d="M110.374 33.0799C108.394 33.0799 106.474 32.8176 104.614 32.2928C102.777 31.7442 101.298 31.0406 100.177 30.1819L102.145 25.817C103.218 26.6042 104.494 27.2362 105.973 27.7133C107.452 28.1903 108.931 28.4288 110.41 28.4288C112.056 28.4288 113.272 28.1903 114.059 27.7133C114.846 27.2124 115.24 26.5564 115.24 25.7455C115.24 25.1492 115.001 24.6602 114.524 24.2786C114.071 23.8731 113.475 23.5511 112.735 23.3126C112.02 23.0741 111.042 22.8117 109.802 22.5255C107.893 22.0723 106.331 21.6191 105.115 21.1659C103.898 20.7127 102.849 19.9852 101.966 18.9835C101.107 17.9817 100.678 16.646 100.678 14.9763C100.678 13.5214 101.072 12.2095 101.859 11.0408C102.646 9.84818 103.827 8.90602 105.401 8.21432C106.999 7.52261 108.943 7.17676 111.233 7.17676C112.831 7.17676 114.393 7.36758 115.92 7.74921C117.446 8.13084 118.782 8.67943 119.927 9.39499L118.138 13.7957C115.824 12.4838 113.51 11.8279 111.197 11.8279C109.575 11.8279 108.37 12.0903 107.583 12.615C106.82 13.1397 106.438 13.8314 106.438 14.6901C106.438 15.5488 106.88 16.1928 107.762 16.6221C108.669 17.0276 110.04 17.4331 111.877 17.8386C113.785 18.2918 115.347 18.7449 116.564 19.1981C117.78 19.6513 118.818 20.3669 119.676 21.3448C120.559 22.3227 121 23.6465 121 25.3161C121 26.7473 120.595 28.0591 119.784 29.2517C118.996 30.4205 117.804 31.3507 116.206 32.0424C114.608 32.7341 112.664 33.0799 110.374 33.0799Z" fill="url(#paint11_linear)"/>
<defs>
<linearGradient id="paint0_linear" x1="-5.98233e-07" y1="19.6778" x2="126.654" y2="19.6778" gradientUnits="userSpaceOnUse">
<stop stop-color="#C4774D"/>
<stop offset="1" stop-color="#FBB68F"/>
</linearGradient>
<linearGradient id="paint1_linear" x1="-5.98233e-07" y1="19.6778" x2="126.654" y2="19.6778" gradientUnits="userSpaceOnUse">
<stop stop-color="#C4774D"/>
<stop offset="1" stop-color="#FBB68F"/>
</linearGradient>
<linearGradient id="paint2_linear" x1="-5.98233e-07" y1="19.6778" x2="126.654" y2="19.6778" gradientUnits="userSpaceOnUse">
<stop stop-color="#C4774D"/>
<stop offset="1" stop-color="#FBB68F"/>
</linearGradient>
<linearGradient id="paint3_linear" x1="-5.98233e-07" y1="19.6778" x2="126.654" y2="19.6778" gradientUnits="userSpaceOnUse">
<stop stop-color="#C4774D"/>
<stop offset="1" stop-color="#FBB68F"/>
</linearGradient>
<linearGradient id="paint4_linear" x1="-5.98233e-07" y1="19.6778" x2="126.654" y2="19.6778" gradientUnits="userSpaceOnUse">
<stop stop-color="#C4774D"/>
<stop offset="1" stop-color="#FBB68F"/>
</linearGradient>
<linearGradient id="paint5_linear" x1="-5.98233e-07" y1="19.6778" x2="126.654" y2="19.6778" gradientUnits="userSpaceOnUse">
<stop stop-color="#C4774D"/>
<stop offset="1" stop-color="#FBB68F"/>
</linearGradient>
<linearGradient id="paint6_linear" x1="-5.98233e-07" y1="19.6778" x2="126.654" y2="19.6778" gradientUnits="userSpaceOnUse">
<stop stop-color="#C4774D"/>
<stop offset="1" stop-color="#FBB68F"/>
</linearGradient>
<linearGradient id="paint7_linear" x1="-5.98233e-07" y1="19.6778" x2="126.654" y2="19.6778" gradientUnits="userSpaceOnUse">
<stop stop-color="#C4774D"/>
<stop offset="1" stop-color="#FBB68F"/>
</linearGradient>
<linearGradient id="paint8_linear" x1="-5.98233e-07" y1="19.6778" x2="126.654" y2="19.6778" gradientUnits="userSpaceOnUse">
<stop stop-color="#C4774D"/>
<stop offset="1" stop-color="#FBB68F"/>
</linearGradient>
<linearGradient id="paint9_linear" x1="-5.98233e-07" y1="19.6778" x2="126.654" y2="19.6778" gradientUnits="userSpaceOnUse">
<stop stop-color="#C4774D"/>
<stop offset="1" stop-color="#FBB68F"/>
</linearGradient>
<linearGradient id="paint10_linear" x1="-5.98233e-07" y1="19.6778" x2="126.654" y2="19.6778" gradientUnits="userSpaceOnUse">
<stop stop-color="#C4774D"/>
<stop offset="1" stop-color="#FBB68F"/>
</linearGradient>
<linearGradient id="paint11_linear" x1="-5.98233e-07" y1="19.6778" x2="126.654" y2="19.6778" gradientUnits="userSpaceOnUse">
<stop stop-color="#C4774D"/>
<stop offset="1" stop-color="#FBB68F"/>
</linearGradient>
</defs>
</svg>
