<svg width="18" height="18" viewBox="0 0 18 18" fill="none" xmlns="http://www.w3.org/2000/svg">
<path d="M8.99991 7.21822V10.7819H14.0407C13.3048 12.8559 11.3234 14.3455 8.99991 14.3455C6.05278 14.3455 3.65446 11.9472 3.65446 9.00003C3.65446 6.05291 6.05278 3.65458 8.99991 3.65458C10.2775 3.65458 11.5069 4.11251 12.462 4.94462L14.8033 2.25763C13.1997 0.860688 11.1399 0.0909424 8.99991 0.0909424C4.08744 0.0909424 0.0908203 4.08756 0.0908203 9.00003C0.0908203 13.9125 4.08744 17.9091 8.99991 17.9091C13.9124 17.9091 17.909 13.9125 17.909 9.00003V7.21822H8.99991Z" fill="url(#paint0_linear)"/>
<defs>
<linearGradient id="paint0_linear" x1="0.0908202" y1="8.92566" x2="18.7416" y2="8.92566" gradientUnits="userSpaceOnUse">
<stop stop-color="#C4774D"/>
<stop offset="1" stop-color="#FBB68F"/>
</linearGradient>
</defs>
</svg>
