<svg width="60" height="60" viewBox="0 0 60 60" fill="none" xmlns="http://www.w3.org/2000/svg">
<path d="M53.09 42.3424C52.761 42.206 52.3822 42.2814 52.1303 42.5332L42.5061 52.1574C42.2543 52.4093 42.1789 52.7881 42.3153 53.1171C42.4515 53.4463 42.7728 53.6608 43.129 53.6608H52.7531C53.2396 53.6608 53.6338 53.2666 53.6338 52.7801V43.1559C53.6337 42.7998 53.4191 42.4787 53.09 42.3424ZM45.2548 51.8996L51.8722 45.2821V51.8996H45.2548Z" fill="url(#paint0_linear)"/>
<path d="M59.4565 28.2265C59.1274 28.0901 58.7487 28.1655 58.4967 28.4173L55.8592 31.0548V13.1215C55.8592 12.635 55.4648 12.2408 54.9785 12.2408H48.212L50.6682 9.78456C50.6686 9.78421 50.6689 9.78374 50.6693 9.78339L53.036 7.41667C53.5431 6.90959 53.8223 6.23506 53.8223 5.51787C53.8223 4.80068 53.5431 4.12639 53.036 3.61908L50.2992 0.882277C49.7921 0.375206 49.1176 0.0959473 48.4004 0.0959473C47.6832 0.0959473 47.0088 0.375206 46.5016 0.882277L35.1432 12.2407H7.80705V3.52838C7.80705 3.04193 7.41271 2.64771 6.92638 2.64771C3.10723 2.64794 0 5.75494 0 9.57433V46.979C0 47.044 0.00750002 47.1073 0.0208594 47.1683C0.1425 48.7889 0.843634 50.2946 2.01539 51.4376C3.2679 52.6592 4.9213 53.332 6.67115 53.332H33.5819L28.5137 58.4002C28.2618 58.6522 28.1865 59.0308 28.3228 59.36C28.459 59.6891 28.7803 59.9036 29.1364 59.9036H59.1195C59.6058 59.9036 60.0001 59.5094 60.0001 59.023V29.0401C60.0001 28.684 59.7854 28.3628 59.4565 28.2265ZM47.7473 2.12787C48.1073 1.76763 48.6939 1.76763 49.0539 2.12787L51.7908 4.86478C52.151 5.2249 52.151 5.81119 51.7908 6.17143L50.0457 7.91659L46.002 3.87302L47.7473 2.12787ZM44.7566 5.1185L48.8001 9.16194L47.1842 10.7778L43.1409 6.7344L44.7566 5.1185ZM58.239 38.9357H56.6142C56.1278 38.9357 55.7336 39.3299 55.7336 39.8164C55.7336 40.3028 56.1278 40.697 56.6142 40.697H58.239V43.3509H56.6142C56.1278 43.3509 55.7336 43.7451 55.7336 44.2315C55.7336 44.718 56.1278 45.1122 56.6142 45.1122H58.239V47.7659H56.6142C56.1278 47.7659 55.7336 48.1601 55.7336 48.6466C55.7336 49.133 56.1278 49.5273 56.6142 49.5273H58.239V52.1811H56.6142C56.1278 52.1811 55.7336 52.5754 55.7336 53.0618C55.7336 53.5482 56.1278 53.9424 56.6142 53.9424H58.239V58.1427H31.2624L40.1579 49.2473C40.5018 48.9032 40.5018 48.3458 40.1579 48.0018C40.1184 47.9623 40.076 47.9281 40.0316 47.8976C39.6887 47.6628 39.2169 47.6974 38.9123 48.0018L35.3432 51.5709H6.67126C4.00032 51.5709 1.85016 49.4857 1.76555 46.8195C1.77059 46.6522 1.7836 46.4862 1.80446 46.3222C1.80457 46.3212 1.80469 46.3203 1.80481 46.3194C1.81465 46.2414 1.82649 46.1638 1.83996 46.0867C1.84149 46.0779 1.84313 46.0692 1.84465 46.0604C1.85696 45.9916 1.87079 45.9231 1.8859 45.8549C1.89012 45.836 1.89457 45.817 1.89903 45.7981C1.91239 45.7405 1.9268 45.6831 1.94227 45.6261C1.95071 45.5951 1.9595 45.5645 1.96852 45.5337C1.98141 45.489 1.99477 45.4443 2.00895 45.4001C2.02313 45.356 2.03825 45.3122 2.0536 45.2685C2.06426 45.2379 2.07481 45.2074 2.08629 45.177C2.10774 45.1194 2.13047 45.0623 2.15391 45.0057C2.16059 44.9894 2.16715 44.9729 2.17407 44.9566C2.20418 44.8863 2.23547 44.8168 2.26852 44.7481C2.26993 44.7452 2.27122 44.7422 2.27262 44.7393C2.96145 43.3138 4.28626 42.2511 5.87614 41.9213C5.8806 41.9204 5.88505 41.9193 5.8895 41.9184C5.96239 41.9035 6.03599 41.8907 6.11005 41.8789C6.12236 41.8769 6.13466 41.8744 6.1472 41.8726C6.21411 41.8624 6.28173 41.8544 6.34935 41.8468C6.36833 41.8447 6.3872 41.8417 6.4063 41.8399C6.47158 41.8333 6.53744 41.829 6.60329 41.8249C6.62415 41.8236 6.64501 41.8213 6.66587 41.8203C6.75212 41.8159 6.83908 41.8137 6.92638 41.8137C7.41271 41.8137 7.80705 41.4195 7.80705 40.9331V34.5476C7.80705 34.0612 7.41271 33.667 6.92638 33.667C6.44005 33.667 6.04572 34.0612 6.04572 34.5476V40.1078C4.5586 40.2959 3.17825 40.9592 2.08981 42.0221C1.97532 42.1339 1.8668 42.2501 1.7611 42.3683V9.57433C1.7611 7.02655 3.61571 4.90346 6.0456 4.48416V31.0251C6.0456 31.5114 6.43994 31.9059 6.92626 31.9059C7.41259 31.9059 7.80693 31.5115 7.80693 31.0252V14.0021H33.382L28.5135 18.8706C28.1696 19.2147 28.1696 19.7721 28.5135 20.1161C28.8575 20.4599 29.4151 20.4599 29.7589 20.1161L36.1307 13.7442C36.1305 13.7443 36.131 13.744 36.1307 13.7442L41.8952 7.97975L45.9385 12.0233L45.4642 12.4977C45.4638 12.498 45.4633 12.4984 45.463 12.4987L27.7058 30.2562L23.6623 26.2128L27.1625 22.7126C27.5064 22.3685 27.5064 21.8111 27.1625 21.4671C26.8185 21.1233 26.261 21.1233 25.9171 21.4671L21.7941 25.59C21.7721 25.6121 21.7515 25.6354 21.7321 25.6593C21.7257 25.6672 21.7199 25.6758 21.7138 25.6841C21.7014 25.7006 21.6892 25.7173 21.6779 25.7346C21.6714 25.7447 21.6656 25.755 21.6595 25.7654C21.6497 25.7819 21.6404 25.7985 21.6318 25.8155C21.6262 25.8265 21.6211 25.8376 21.616 25.8491C21.6081 25.8664 21.6009 25.8839 21.5942 25.9015C21.5918 25.9077 21.5888 25.9136 21.5866 25.9198L18.7011 34.0941C18.6856 34.1382 18.6745 34.1829 18.6661 34.228H15.7374C15.251 34.228 14.8567 34.6223 14.8567 35.1087C14.8567 35.5952 15.251 35.9894 15.7374 35.9894H40.1258C40.6122 35.9894 41.0065 35.5952 41.0065 35.1087C41.0065 34.6223 40.6122 34.228 40.1258 34.228H22.6281L27.9988 32.3322C28.0033 32.3305 28.0075 32.3283 28.012 32.3267C28.0328 32.3189 28.0533 32.3103 28.0736 32.301C28.0817 32.2973 28.0898 32.2937 28.0976 32.2899C28.1187 32.2793 28.1395 32.2677 28.1599 32.2553C28.1664 32.2513 28.1732 32.2477 28.1797 32.2436C28.2009 32.23 28.2215 32.2151 28.2418 32.1994C28.2468 32.1955 28.2521 32.1921 28.257 32.1882C28.2815 32.1685 28.3055 32.1473 28.3283 32.1245L46.4506 14.0023H54.0977V32.8163L41.5005 45.4136C41.1566 45.7577 41.1566 46.3151 41.5005 46.6591C41.522 46.6805 41.5443 46.7007 41.5674 46.7196C41.7289 46.8512 41.9261 46.917 42.1232 46.917C42.3204 46.917 42.5177 46.8512 42.6791 46.7196C42.7022 46.7008 42.7245 46.6805 42.746 46.6591C42.7456 46.6594 42.7463 46.6587 42.746 46.6591L58.239 31.1659V38.9357ZM26.095 31.1362L23.5724 32.0267L21.8917 30.346L22.7822 27.8234L26.095 31.1362Z" fill="url(#paint1_linear)"/>
<defs>
<linearGradient id="paint0_linear" x1="-2.96645e-07" y1="29.7501" x2="62.8036" y2="29.7501" gradientUnits="userSpaceOnUse">
<stop stop-color="#C4774D"/>
<stop offset="1" stop-color="#FBB68F"/>
</linearGradient>
<linearGradient id="paint1_linear" x1="-2.96645e-07" y1="29.7501" x2="62.8036" y2="29.7501" gradientUnits="userSpaceOnUse">
<stop stop-color="#C4774D"/>
<stop offset="1" stop-color="#FBB68F"/>
</linearGradient>
</defs>
</svg>
