<svg width="59" height="59" viewBox="0 0 59 59" fill="none" xmlns="http://www.w3.org/2000/svg">
<path d="M56.05 0H18.6833C17.9017 0.00233452 17.1527 0.313887 16.5999 0.866614C16.0472 1.41934 15.7357 2.16833 15.7333 2.95V13.7667H0.983333C0.722537 13.7667 0.472422 13.8703 0.288012 14.0547C0.103601 14.2391 0 14.4892 0 14.75V54.0833C0 54.3441 0.103601 54.5942 0.288012 54.7787C0.472422 54.9631 0.722537 55.0667 0.983333 55.0667H15.7333V56.05C15.7357 56.8317 16.0472 57.5807 16.5999 58.1334C17.1527 58.6861 17.9017 58.9977 18.6833 59H56.05C56.8317 58.9977 57.5807 58.6861 58.1334 58.1334C58.6861 57.5807 58.9977 56.8317 59 56.05V2.95C58.9977 2.16833 58.6861 1.41934 58.1334 0.866614C57.5807 0.313887 56.8317 0.00233452 56.05 0ZM3.93333 53.1H1.96667V15.7333H3.93333V53.1ZM5.9 53.1V15.7333H27.5333V53.1H5.9ZM57.0333 56.05C57.0333 56.3108 56.9297 56.5609 56.7453 56.7453C56.5609 56.9297 56.3108 57.0333 56.05 57.0333H18.6833C18.4225 57.0333 18.1724 56.9297 17.988 56.7453C17.8036 56.5609 17.7 56.3108 17.7 56.05V55.0667H28.5167C28.7775 55.0667 29.0276 54.9631 29.212 54.7787C29.3964 54.5942 29.5 54.3441 29.5 54.0833V14.75C29.5 14.4892 29.3964 14.2391 29.212 14.0547C29.0276 13.8703 28.7775 13.7667 28.5167 13.7667H17.7V2.95C17.7 2.6892 17.8036 2.43909 17.988 2.25468C18.1724 2.07027 18.4225 1.96667 18.6833 1.96667H56.05C56.3108 1.96667 56.5609 2.07027 56.7453 2.25468C56.9297 2.43909 57.0333 2.6892 57.0333 2.95V56.05Z" fill="url(#paint0_linear)"/>
<path d="M52.3054 37.5151C52.121 37.3307 51.871 37.2272 51.6102 37.2272C51.3495 37.2272 51.0994 37.3307 50.915 37.5151L43.2666 45.1634L39.7896 41.6874C39.6052 41.503 39.3551 41.3994 39.0943 41.3994C38.8336 41.3994 38.5835 41.503 38.3991 41.6874L35.6183 44.4682C35.4339 44.6526 35.3304 44.9027 35.3304 45.1634C35.3304 45.4242 35.4339 45.6742 35.6183 45.8586L42.5714 52.8118C42.7558 52.9961 43.0059 53.0997 43.2666 53.0997C43.5274 53.0997 43.7774 52.9961 43.9618 52.8118L55.0873 41.6874C55.1787 41.596 55.2513 41.4876 55.3007 41.3682C55.3502 41.2488 55.3757 41.1209 55.3757 40.9916C55.3757 40.8624 55.3502 40.7345 55.3007 40.6151C55.2513 40.4957 55.1787 40.3873 55.0873 40.2959L52.3054 37.5151ZM43.2666 50.7261L37.7039 45.1634L39.0943 43.773L42.5714 47.2491C42.7558 47.4334 43.0059 47.537 43.2666 47.537C43.5274 47.537 43.7774 47.4334 43.9618 47.2491L51.6102 39.6007L53.0016 40.9921L43.2666 50.7261Z" fill="url(#paint1_linear)"/>
<path d="M53.1 10.8167V6.88333C53.1 6.62254 52.9964 6.37242 52.812 6.18801C52.6276 6.0036 52.3775 5.9 52.1167 5.9H22.6167C22.3559 5.9 22.1058 6.0036 21.9213 6.18801C21.7369 6.37242 21.6333 6.62254 21.6333 6.88333V10.8167C21.6333 11.0775 21.7369 11.3276 21.9213 11.512C22.1058 11.6964 22.3559 11.8 22.6167 11.8H52.1167C52.3775 11.8 52.6276 11.6964 52.812 11.512C52.9964 11.3276 53.1 11.0775 53.1 10.8167ZM51.1333 9.83333H23.6V7.86667H51.1333V9.83333Z" fill="url(#paint2_linear)"/>
<path d="M35.4 15.7333H39.3333V17.7H35.4V15.7333Z" fill="url(#paint3_linear)"/>
<path d="M41.3 15.7333H53.1V17.7H41.3V15.7333Z" fill="url(#paint4_linear)"/>
<path d="M35.4 21.6333H39.3333V23.6H35.4V21.6333Z" fill="url(#paint5_linear)"/>
<path d="M41.3 21.6333H53.1V23.6H41.3V21.6333Z" fill="url(#paint6_linear)"/>
<path d="M35.4 27.5333H39.3333V29.5H35.4V27.5333Z" fill="url(#paint7_linear)"/>
<path d="M41.3 27.5333H53.1V29.5H41.3V27.5333Z" fill="url(#paint8_linear)"/>
<path d="M35.4 33.4333H39.3333V35.4H35.4V33.4333Z" fill="url(#paint9_linear)"/>
<path d="M41.3 33.4333H53.1V35.4H41.3V33.4333Z" fill="url(#paint10_linear)"/>
<path d="M16.7166 29.5C15.7442 29.5 14.7936 29.7884 13.9851 30.3286C13.1766 30.8689 12.5464 31.6367 12.1742 32.5351C11.8021 33.4335 11.7047 34.4221 11.8945 35.3759C12.0842 36.3296 12.5524 37.2057 13.24 37.8933C13.9276 38.5809 14.8037 39.0492 15.7575 39.2389C16.7112 39.4286 17.6998 39.3312 18.5982 38.9591C19.4966 38.5869 20.2645 37.9568 20.8047 37.1482C21.345 36.3397 21.6333 35.3891 21.6333 34.4167C21.6317 33.1132 21.1132 31.8635 20.1915 30.9418C19.2698 30.0201 18.0201 29.5016 16.7166 29.5ZM16.7166 37.3667C16.1332 37.3667 15.5628 37.1937 15.0777 36.8695C14.5926 36.5454 14.2145 36.0846 13.9912 35.5456C13.7679 35.0065 13.7095 34.4134 13.8233 33.8412C13.9372 33.2689 14.2181 32.7433 14.6307 32.3307C15.0432 31.9181 15.5689 31.6372 16.1411 31.5234C16.7134 31.4095 17.3065 31.4679 17.8456 31.6912C18.3846 31.9145 18.8453 32.2926 19.1695 32.7777C19.4936 33.2629 19.6666 33.8332 19.6666 34.4167C19.6666 35.1991 19.3558 35.9494 18.8026 36.5026C18.2494 37.0559 17.499 37.3667 16.7166 37.3667Z" fill="url(#paint11_linear)"/>
<path d="M24.5833 21.6333C23.8017 21.631 23.0527 21.3194 22.4999 20.7667C21.9472 20.214 21.6357 19.465 21.6333 18.6833C21.6333 18.4225 21.5297 18.1724 21.3453 17.988C21.1609 17.8036 20.9108 17.7 20.65 17.7H12.7833C12.5225 17.7 12.2724 17.8036 12.088 17.988C11.9036 18.1724 11.8 18.4225 11.8 18.6833C11.7977 19.465 11.4861 20.214 10.9334 20.7667C10.3807 21.3194 9.63167 21.631 8.85 21.6333C8.5892 21.6333 8.33909 21.7369 8.15468 21.9213C7.97027 22.1058 7.86667 22.3559 7.86667 22.6167V46.2167C7.86667 46.4775 7.97027 46.7276 8.15468 46.912C8.33909 47.0964 8.5892 47.2 8.85 47.2C9.63167 47.2023 10.3807 47.5139 10.9334 48.0666C11.4861 48.6193 11.7977 49.3683 11.8 50.15C11.8 50.4108 11.9036 50.6609 12.088 50.8453C12.2724 51.0297 12.5225 51.1333 12.7833 51.1333H20.65C20.9108 51.1333 21.1609 51.0297 21.3453 50.8453C21.5297 50.6609 21.6333 50.4108 21.6333 50.15C21.6357 49.3683 21.9472 48.6193 22.4999 48.0666C23.0527 47.5139 23.8017 47.2023 24.5833 47.2C24.8441 47.2 25.0942 47.0964 25.2787 46.912C25.4631 46.7276 25.5667 46.4775 25.5667 46.2167V22.6167C25.5667 22.3559 25.4631 22.1058 25.2787 21.9213C25.0942 21.7369 24.8441 21.6333 24.5833 21.6333ZM23.6 45.3317C22.6557 45.5256 21.789 45.9923 21.1073 46.6739C20.4256 47.3556 19.9589 48.2223 19.765 49.1667H13.6683C13.4744 48.2223 13.0077 47.3556 12.3261 46.6739C11.6444 45.9923 10.7777 45.5256 9.83333 45.3317V23.5017C10.7777 23.3078 11.6444 22.8411 12.3261 22.1594C13.0077 21.4777 13.4744 20.611 13.6683 19.6667H19.765C19.9589 20.611 20.4256 21.4777 21.1073 22.1594C21.789 22.8411 22.6557 23.3078 23.6 23.5017V45.3317Z" fill="url(#paint12_linear)"/>
<defs>
<linearGradient id="paint0_linear" x1="-2.917e-07" y1="29.2537" x2="61.7568" y2="29.2537" gradientUnits="userSpaceOnUse">
<stop stop-color="#C4774D"/>
<stop offset="1" stop-color="#FBB68F"/>
</linearGradient>
<linearGradient id="paint1_linear" x1="-2.917e-07" y1="29.2537" x2="61.7568" y2="29.2537" gradientUnits="userSpaceOnUse">
<stop stop-color="#C4774D"/>
<stop offset="1" stop-color="#FBB68F"/>
</linearGradient>
<linearGradient id="paint2_linear" x1="-2.917e-07" y1="29.2537" x2="61.7568" y2="29.2537" gradientUnits="userSpaceOnUse">
<stop stop-color="#C4774D"/>
<stop offset="1" stop-color="#FBB68F"/>
</linearGradient>
<linearGradient id="paint3_linear" x1="-2.917e-07" y1="29.2537" x2="61.7568" y2="29.2537" gradientUnits="userSpaceOnUse">
<stop stop-color="#C4774D"/>
<stop offset="1" stop-color="#FBB68F"/>
</linearGradient>
<linearGradient id="paint4_linear" x1="-2.917e-07" y1="29.2537" x2="61.7568" y2="29.2537" gradientUnits="userSpaceOnUse">
<stop stop-color="#C4774D"/>
<stop offset="1" stop-color="#FBB68F"/>
</linearGradient>
<linearGradient id="paint5_linear" x1="-2.917e-07" y1="29.2537" x2="61.7568" y2="29.2537" gradientUnits="userSpaceOnUse">
<stop stop-color="#C4774D"/>
<stop offset="1" stop-color="#FBB68F"/>
</linearGradient>
<linearGradient id="paint6_linear" x1="-2.917e-07" y1="29.2537" x2="61.7568" y2="29.2537" gradientUnits="userSpaceOnUse">
<stop stop-color="#C4774D"/>
<stop offset="1" stop-color="#FBB68F"/>
</linearGradient>
<linearGradient id="paint7_linear" x1="-2.917e-07" y1="29.2537" x2="61.7568" y2="29.2537" gradientUnits="userSpaceOnUse">
<stop stop-color="#C4774D"/>
<stop offset="1" stop-color="#FBB68F"/>
</linearGradient>
<linearGradient id="paint8_linear" x1="-2.917e-07" y1="29.2537" x2="61.7568" y2="29.2537" gradientUnits="userSpaceOnUse">
<stop stop-color="#C4774D"/>
<stop offset="1" stop-color="#FBB68F"/>
</linearGradient>
<linearGradient id="paint9_linear" x1="-2.917e-07" y1="29.2537" x2="61.7568" y2="29.2537" gradientUnits="userSpaceOnUse">
<stop stop-color="#C4774D"/>
<stop offset="1" stop-color="#FBB68F"/>
</linearGradient>
<linearGradient id="paint10_linear" x1="-2.917e-07" y1="29.2537" x2="61.7568" y2="29.2537" gradientUnits="userSpaceOnUse">
<stop stop-color="#C4774D"/>
<stop offset="1" stop-color="#FBB68F"/>
</linearGradient>
<linearGradient id="paint11_linear" x1="-2.917e-07" y1="29.2537" x2="61.7568" y2="29.2537" gradientUnits="userSpaceOnUse">
<stop stop-color="#C4774D"/>
<stop offset="1" stop-color="#FBB68F"/>
</linearGradient>
<linearGradient id="paint12_linear" x1="-2.917e-07" y1="29.2537" x2="61.7568" y2="29.2537" gradientUnits="userSpaceOnUse">
<stop stop-color="#C4774D"/>
<stop offset="1" stop-color="#FBB68F"/>
</linearGradient>
</defs>
</svg>
