<svg width="57" height="59" viewBox="0 0 57 59" fill="none" xmlns="http://www.w3.org/2000/svg">
<path d="M56.9597 38.9856C56.9466 36.3226 55.4931 35.5979 54.2764 35.4588C54.2485 35.4557 54.2206 35.4539 54.1927 35.4534C51.9952 35.4147 51.0458 34.8556 50.0407 34.2637C49.0193 33.6619 47.9629 33.0398 45.8846 33.0398C44.8628 33.0398 44.089 33.1906 43.444 33.4152C42.3339 30.9723 40.113 30.3376 37.9591 29.7241C37.6435 29.6341 37.3172 29.5409 36.9922 29.4428L31.5199 27.78C33.5352 25.9731 35.0868 23.6271 35.7458 21.3012C36.4714 21.1531 37.2038 20.7556 37.7948 20.1714C38.5272 19.448 38.9467 18.536 38.9467 17.67V16.5694C38.9467 15.6354 38.2971 14.8522 37.4266 14.6419C37.4581 14.4956 37.4761 14.3444 37.4761 14.1887V12.9931C37.4761 12.0609 36.8752 11.2682 36.0411 10.9765C35.3983 6.89154 32.7371 3.43722 28.9357 1.77713C28.5482 0.740469 27.548 0 26.3785 0H21.8695C20.7041 0 19.7075 0.732817 19.315 1.76137C17.4357 2.57611 15.7878 3.86169 14.5296 5.49928C13.29 7.11301 12.4824 9.00537 12.1696 11.0062C11.3787 11.3195 10.8174 12.0915 10.8174 12.9931V14.1887C10.8174 14.3642 10.8408 14.5344 10.8809 14.6978C10.1071 14.9687 9.54982 15.7043 9.54982 16.5694V17.67C9.54982 18.536 9.9689 19.4476 10.7004 20.17C11.2693 20.7322 11.9697 21.123 12.6683 21.2837C13.326 23.6167 14.8799 25.9686 16.9005 27.7791L10.8696 29.6089C10.8692 29.6093 10.8692 29.6093 10.8687 29.6093C10.8665 29.6102 10.8638 29.6107 10.8611 29.6116C10.5338 29.7111 10.2174 29.8015 9.91083 29.8889C7.64981 30.5339 5.69668 31.0907 4.71674 34.1192C4.71494 34.1242 4.71359 34.1296 4.71179 34.1345L0.601621 47.6876C0.0884684 49.3787 -0.221223 50.3996 0.324788 51.1293C0.753766 51.7028 1.42086 51.7658 2.39495 51.7658C2.52639 51.7658 2.66413 51.7644 2.80682 51.7631C2.98373 51.7617 3.17413 51.7604 3.37939 51.7604H36.1045C37.5877 54.3928 40.2732 56.7416 43.8045 58.426C43.8095 58.4282 43.8149 58.4305 43.8198 58.4332C44.5045 58.7433 45.1306 58.9999 45.8598 58.9999C46.4711 58.9999 47.0999 58.8293 47.9687 58.426C52.6064 56.2136 55.788 52.8556 56.699 49.2108C56.8633 48.546 56.952 47.8762 56.9628 47.2199C56.9628 47.2149 56.9628 47.2104 56.9628 47.2055L56.9597 38.9856ZM36.0937 18.9533L36.1234 16.3268H36.9616C37.0957 16.3268 37.2051 16.4357 37.2051 16.5694V17.67C37.2051 18.0684 36.9679 18.5401 36.5709 18.9326C36.4196 19.0821 36.254 19.2099 36.0838 19.3148C36.0897 19.1941 36.0937 19.0731 36.0937 18.9533ZM10.252 50.0184H3.37939C3.16918 50.0184 2.97337 50.0202 2.79242 50.0215C2.43096 50.0247 2.0353 50.0283 1.78952 50.008C1.84984 49.5727 2.11452 48.7013 2.26846 48.1931L6.37638 34.6481C7.05563 32.5563 8.19987 32.189 10.252 31.603V50.0184ZM38.1036 31.5778C39.8695 32.0954 41.1856 32.6122 41.878 34.1768C41.8284 34.2056 41.7794 34.2349 41.7303 34.2637C40.8098 34.8066 39.9356 35.3211 38.1036 35.4327V31.5778ZM20.8779 2.73231C20.8779 2.1863 21.3226 1.74157 21.8695 1.74157H26.3785C26.9232 1.74157 27.3666 2.18585 27.3666 2.73231V5.95211C27.3666 6.49678 26.9232 6.93971 26.3785 6.93971H21.8695C21.3226 6.93971 20.8779 6.49678 20.8779 5.95211V2.73231ZM19.1359 3.78607V5.95256C19.1359 7.45736 20.3625 8.68172 21.8695 8.68172H26.3785C27.8838 8.68172 29.1081 7.45736 29.1081 5.95256V3.80318C31.7801 5.27871 33.6599 7.84763 34.2518 10.8554H13.9638C14.5589 7.83232 16.4499 5.25666 19.1359 3.78607ZM11.9247 18.9317C11.5282 18.5396 11.2909 18.0679 11.2909 17.67V16.5694C11.2909 16.4357 11.4003 16.3268 11.5349 16.3268H12.2965L12.3235 18.9434C12.3235 19.0492 12.3276 19.1554 12.3321 19.2617C12.1903 19.1671 12.0526 19.0577 11.9247 18.9317ZM14.2578 20.4883C14.2578 20.4869 14.2578 20.4856 14.2578 20.4847C14.2564 20.3645 14.2308 20.2502 14.1853 20.1462C14.1079 19.7356 14.0651 19.3301 14.0651 18.9344L14.0381 16.3277L21.9929 16.3331C22.4736 16.3331 22.8639 15.9437 22.8643 15.463C22.8648 14.9818 22.4754 14.592 21.9942 14.5915L13.1617 14.5852C13.1608 14.5852 13.1594 14.5848 13.1585 14.5848H12.9528C12.7395 14.5848 12.559 14.4034 12.559 14.1887V12.9931C12.559 12.7784 12.7395 12.597 12.9528 12.597H35.338C35.5531 12.597 35.7345 12.7784 35.7345 12.9931V14.1887C35.7345 14.4034 35.5531 14.5848 35.338 14.5848H25.9864C25.5053 14.5848 25.1154 14.9746 25.1154 15.4558C25.1154 15.937 25.5053 16.3268 25.9864 16.3268H34.3819L34.3526 18.9434C34.3526 22.657 30.7606 27.252 26.6661 28.777C24.8566 29.4509 23.5755 29.4527 21.7705 28.7833C18.2221 27.4662 15.0523 23.8517 14.2578 20.4883ZM31.3259 29.5409C30.4288 31.499 27.4642 32.9448 24.1076 32.9448C20.7352 32.9448 17.83 31.549 16.9127 29.5958L18.5858 29.0881C19.4055 29.6327 20.2725 30.0851 21.1651 30.4164C22.2598 30.8224 23.2348 31.0254 24.2098 31.0254C25.1902 31.0254 26.171 30.8202 27.2738 30.4092C28.1601 30.0793 29.0208 29.6291 29.8351 29.0881L31.3259 29.5409ZM31.5064 50.0184H16.6822V47.4859L31.5064 47.4945V50.0184ZM31.5064 45.7529L16.6822 45.7444V44.5637C16.6822 44.4898 16.7457 44.4255 16.8181 44.4255H31.3709C31.4434 44.4255 31.5064 44.4898 31.5064 44.5637V45.7529ZM36.362 35.7883C35.5198 36.2218 34.8131 37.1396 34.8131 39.0009L34.8068 40.3477V47.2199C34.8176 47.8829 34.9081 48.5545 35.0742 49.2131C35.1417 49.4832 35.2236 49.7519 35.3159 50.0184H33.2484V44.5637C33.2484 43.527 32.4062 42.6834 31.3709 42.6834H16.8181C15.7828 42.6834 14.9411 43.527 14.9411 44.5637V50.0184H11.994V31.088L14.9411 30.194V38.3977C14.9411 39.4326 15.7828 40.2743 16.8177 40.2743L22.0293 40.2775C22.5101 40.2775 22.9003 39.8881 22.9003 39.4074C22.9008 38.9262 22.5114 38.5364 22.0302 38.5359L16.8181 38.5328C16.7475 38.5328 16.6826 38.4679 16.6826 38.3977V32.1386C18.3634 33.7042 21.0588 34.6868 24.1076 34.6868C27.132 34.6868 29.8531 33.6758 31.546 32.0977V38.3977C31.546 38.4693 31.4808 38.5328 31.4069 38.5328H26.0189C25.5381 38.5328 25.1483 38.9226 25.1483 39.4033C25.1483 39.8845 25.5381 40.2743 26.0189 40.2743H31.4069C32.4441 40.2743 33.2876 39.4326 33.2876 38.3977V30.1369L36.362 31.0714V35.7883ZM55.2213 47.1983C55.2123 47.7209 55.1407 48.2575 55.0088 48.7904C54.2247 51.9269 51.3857 54.8659 47.2269 56.85C46.6188 57.1323 46.1974 57.2583 45.8603 57.2583C45.5114 57.2583 45.1576 57.1264 44.5468 56.85C40.384 54.8623 37.5477 51.9251 36.7635 48.7882C36.6298 48.2597 36.5578 47.7249 36.5484 47.1983V40.3518L36.5551 38.9987C36.5551 37.7932 36.8545 37.2994 37.6566 37.1941C40.2813 37.1396 41.521 36.409 42.6148 35.764C43.5461 35.2153 44.2817 34.7818 45.885 34.7818C47.4884 34.7818 48.2248 35.2153 49.1566 35.7645C50.2518 36.4095 51.4919 37.1401 54.1166 37.1941C54.9129 37.299 55.2123 37.7914 55.2181 38.9942L55.2213 40.3477V47.1983Z" fill="url(#paint0_linear)"/>
<path d="M49.5891 42.7303C49.2168 42.4251 48.6681 42.4804 48.3638 42.8527L44.6254 47.422L43.2714 46.3525C42.8942 46.0541 42.3464 46.1184 42.0484 46.4961C41.75 46.8733 41.8143 47.4211 42.192 47.7191L44.2176 49.3193C44.3774 49.4458 44.5678 49.507 44.7569 49.507C45.0094 49.507 45.2597 49.3977 45.4316 49.1874L49.7119 43.9555C50.0162 43.5833 49.9613 43.0346 49.5891 42.7303Z" fill="url(#paint1_linear)"/>
<path d="M51.748 38.4144C51.7201 38.4112 51.6926 38.4094 51.6643 38.409C50.2067 38.3824 49.6053 38.0277 48.909 37.6177C48.2032 37.2017 47.4028 36.73 45.8845 36.73C44.3671 36.73 43.5677 37.2017 42.8623 37.6172C42.166 38.0277 41.565 38.3824 40.1053 38.409C40.0773 38.4094 40.049 38.4112 40.0211 38.4144C39.2378 38.5049 37.9239 38.9793 37.9239 41.1413L37.9207 42.0785V46.8562C37.928 47.3406 37.9932 47.829 38.113 48.3048C38.7643 50.9124 41.028 53.3098 44.3239 54.8821C44.3293 54.8848 44.3343 54.8871 44.3397 54.8898C44.8447 55.1184 45.3084 55.3079 45.8692 55.3079C46.336 55.3079 46.8064 55.1815 47.4497 54.8821C50.7455 53.3094 53.0093 50.9119 53.6611 48.3007C53.7808 47.8119 53.8452 47.3262 53.8528 46.8571C53.8528 46.8526 53.8528 46.8477 53.8528 46.8432V42.0753L53.8492 41.1409C53.8492 38.9793 52.533 38.5049 51.748 38.4144ZM52.1108 46.836C52.1049 47.1731 52.0572 47.5265 51.9699 47.883C51.445 49.9842 49.5239 51.9621 46.7065 53.3071C46.3266 53.484 46.0605 53.5664 45.8688 53.5664C45.6743 53.5664 45.4542 53.4827 45.0662 53.3071C42.2452 51.959 40.3272 49.982 39.8023 47.8812C39.715 47.5355 39.6677 47.1839 39.6619 46.836V42.0816L39.6655 41.1409C39.6655 40.309 39.8779 40.1906 40.1836 40.1492C42.0696 40.1065 42.9987 39.5586 43.7468 39.118C44.3829 38.743 44.842 38.472 45.8845 38.472C46.9275 38.472 47.3875 38.743 48.0245 39.1184C48.7726 39.5591 49.7021 40.1065 51.5859 40.1492C51.8934 40.1906 52.1072 40.3095 52.1072 41.1476L52.1108 42.0785V46.836Z" fill="url(#paint2_linear)"/>
<defs>
<linearGradient id="paint0_linear" x1="0.0371091" y1="29.2537" x2="59.6227" y2="29.2537" gradientUnits="userSpaceOnUse">
<stop stop-color="#C4774D"/>
<stop offset="1" stop-color="#FBB68F"/>
</linearGradient>
<linearGradient id="paint1_linear" x1="0.0371091" y1="29.2537" x2="59.6227" y2="29.2537" gradientUnits="userSpaceOnUse">
<stop stop-color="#C4774D"/>
<stop offset="1" stop-color="#FBB68F"/>
</linearGradient>
<linearGradient id="paint2_linear" x1="0.0371091" y1="29.2537" x2="59.6227" y2="29.2537" gradientUnits="userSpaceOnUse">
<stop stop-color="#C4774D"/>
<stop offset="1" stop-color="#FBB68F"/>
</linearGradient>
</defs>
</svg>
