<svg width="24" height="24" viewBox="0 0 24 24" fill="none" xmlns="http://www.w3.org/2000/svg">
<path fill-rule="evenodd" clip-rule="evenodd" d="M17.1323 0.54541H6.86736C3.38144 0.54541 0.54541 3.38157 0.54541 6.86749V17.1324C0.54541 20.6185 3.38144 23.4545 6.86736 23.4545H17.1323C20.6185 23.4545 23.4545 20.6183 23.4545 17.1324V6.86749C23.4546 3.38157 20.6185 0.54541 17.1323 0.54541ZM21.422 17.1324C21.422 19.4977 19.4977 21.4219 17.1324 21.4219H6.86735C4.50221 21.422 2.57801 19.4977 2.57801 17.1324V6.86749C2.57801 4.50235 4.50221 2.57801 6.86735 2.57801H17.1323C19.4976 2.57801 21.4219 4.50235 21.4219 6.86749V17.1324H21.422ZM5.99998 12.0001C5.99998 8.69159 8.69153 5.99998 12 5.99998C15.3084 5.99998 18 8.69159 18 12.0001C18 15.3085 15.3084 18 12 18C8.69153 18 5.99998 15.3085 5.99998 12.0001ZM11.9999 15.9338C9.8308 15.9338 8.06591 14.1692 8.06591 12C8.06591 9.83066 9.83066 8.06586 11.9999 8.06586C14.1692 8.06586 15.934 9.83066 15.934 12C15.934 14.1692 14.1691 15.9338 11.9999 15.9338Z" fill="url(#paint0_linear)"/>
<defs>
<linearGradient id="paint0_linear" x1="0.54541" y1="11.9043" x2="24.5249" y2="11.9043" gradientUnits="userSpaceOnUse">
<stop stop-color="#C4774D"/>
<stop offset="1" stop-color="#FBB68F"/>
</linearGradient>
</defs>
</svg>
